<svg width="152" height="57" viewBox="0 0 152 57" fill="none" xmlns="http://www.w3.org/2000/svg">
<path d="M66.4201 13.8182L74.1928 35.858H74.4996L82.2724 13.8182H85.5962L75.9826 40H72.7099L63.0962 13.8182H66.4201ZM89.6744 40V13.8182H105.373V16.6307H92.8448V25.4773H104.197V28.2898H92.8448V40H89.6744ZM131.871 22H128.701C128.513 21.0881 128.185 20.2869 127.717 19.5966C127.256 18.9062 126.694 18.3267 126.029 17.858C125.373 17.3807 124.644 17.0227 123.843 16.7841C123.042 16.5455 122.207 16.4261 121.337 16.4261C119.752 16.4261 118.316 16.8267 117.029 17.6278C115.751 18.429 114.732 19.6094 113.974 21.169C113.224 22.7287 112.849 24.642 112.849 26.9091C112.849 29.1761 113.224 31.0895 113.974 32.6491C114.732 34.2088 115.751 35.3892 117.029 36.1903C118.316 36.9915 119.752 37.392 121.337 37.392C122.207 37.392 123.042 37.2727 123.843 37.0341C124.644 36.7955 125.373 36.4418 126.029 35.973C126.694 35.4957 127.256 34.9119 127.717 34.2216C128.185 33.5227 128.513 32.7216 128.701 31.8182H131.871C131.633 33.1562 131.198 34.3537 130.567 35.4105C129.937 36.4673 129.153 37.3665 128.215 38.108C127.278 38.8409 126.225 39.3991 125.058 39.7827C123.898 40.1662 122.658 40.358 121.337 40.358C119.104 40.358 117.119 39.8125 115.38 38.7216C113.641 37.6307 112.273 36.0795 111.276 34.0682C110.279 32.0568 109.781 29.6705 109.781 26.9091C109.781 24.1477 110.279 21.7614 111.276 19.75C112.273 17.7386 113.641 16.1875 115.38 15.0966C117.119 14.0057 119.104 13.4602 121.337 13.4602C122.658 13.4602 123.898 13.652 125.058 14.0355C126.225 14.419 127.278 14.9815 128.215 15.723C129.153 16.456 129.937 17.3509 130.567 18.4077C131.198 19.456 131.633 20.6534 131.871 22Z" fill="white"/>
<rect x="1" y="1" width="35" height="55" stroke="white"/>
<rect x="12" y="1" width="12" height="4" stroke="#FFF7F7"/>
<rect x="7" y="1" width="22" height="9" stroke="white"/>
<path d="M13 10H23V10C23 12.7614 20.7615 15 18 15V15C15.2386 15 13 12.7614 13 10V10Z" stroke="white"/>
<circle cx="18" cy="7.5" r="0.5" fill="#D9D9D9"/>
<rect x="24.0001" y="56" width="12" height="4" transform="rotate(-180 24.0001 56)" stroke="#FFF7F7"/>
<rect x="29.0001" y="56" width="22" height="9" transform="rotate(-180 29.0001 56)" stroke="white"/>
<path d="M23 47L13 47V47C13 44.2385 15.2386 42 18 42V42C20.7615 42 23 44.2385 23 47V47Z" stroke="white"/>
<circle cx="18.0001" cy="49.5" r="0.5" transform="rotate(-180 18.0001 49.5)" fill="#D9D9D9"/>
<line x1="1" y1="28.5" x2="36" y2="28.5" stroke="white"/>
<circle cx="18" cy="28.5" r="5" stroke="white"/>
<circle cx="18" cy="28.5" r="0.5" fill="white" stroke="white"/>
<path d="M1 1H3V1C3 2.10457 2.10457 3 1 3V3V1Z" stroke="white"/>
<path d="M36 1V3V3C34.8954 3 34 2.10457 34 1V1L36 1Z" stroke="white"/>
<path d="M36 56H34V56C34 54.8954 34.8954 54 36 54V54V56Z" stroke="white"/>
<path d="M1 56L1 54V54C2.10457 54 3 54.8954 3 56V56H1Z" stroke="white"/>
</svg>
